<svg xmlns="http://www.w3.org/2000/svg" viewBox="0 0 1200 320" font-family="'Segoe UI', system-ui, -apple-system, sans-serif">
  <defs>
    <linearGradient id="bg" x1="0" y1="0" x2="1" y2="1">
      <stop offset="0%" stop-color="#5B4FD1"/>
      <stop offset="100%" stop-color="#3A2F8F"/>
    </linearGradient>
  </defs>
  <rect width="1200" height="320" fill="url(#bg)"/>

  <!-- glyph tile, echoes media/icon.png -->
  <rect x="64" y="80" width="160" height="160" rx="28" fill="#ffffff" fill-opacity="0.12"/>
  <g transform="translate(104,116)" stroke="#ffffff" stroke-width="6.5" stroke-linecap="round" stroke-linejoin="round" fill="none">
    <rect x="26" y="0" width="32" height="32" rx="5"/>
    <rect x="0" y="56" width="32" height="32" rx="5"/>
    <rect x="52" y="56" width="32" height="32" rx="5"/>
    <path d="M42 32v10M42 42H16v14M42 42h26v14"/>
  </g>

  <text x="264" y="150" fill="#ffffff" font-size="56" font-weight="700">Dependency Explorer</text>
  <text x="266" y="192" fill="#E4E0FF" font-size="24">See every dependency — direct and transitive — flag CVEs, fix them in one click.</text>

  <!-- feature chips -->
  <g font-size="18" fill="#ffffff">
    <g transform="translate(266,222)">
      <rect width="72" height="34" rx="17" fill="#ffffff" fill-opacity="0.16"/>
      <text x="36" y="23" text-anchor="middle">npm</text>
    </g>
    <g transform="translate(350,222)">
      <rect width="78" height="34" rx="17" fill="#ffffff" fill-opacity="0.16"/>
      <text x="39" y="23" text-anchor="middle">pnpm</text>
    </g>
    <g transform="translate(440,222)">
      <rect width="86" height="34" rx="17" fill="#ffffff" fill-opacity="0.16"/>
      <text x="43" y="23" text-anchor="middle">NuGet</text>
    </g>
    <g transform="translate(538,222)">
      <rect width="180" height="34" rx="17" fill="#ffffff" fill-opacity="0.22"/>
      <text x="90" y="23" text-anchor="middle">OSV.dev vulnerabilities</text>
    </g>
  </g>
</svg>
